<svg width="16" height="16" fill="none" xmlns="http://www.w3.org/2000/svg"><g clip-path="url(#a)"><path d="M11.333 2.225a6.667 6.667 0 1 1-9.997 5.99l-.003-.216.003-.216a6.667 6.667 0 0 1 9.997-5.558Zm-.862 3.969a.667.667 0 0 0-.88-.055l-.063.055-2.195 2.195-.862-.862-.063-.055a.667.667 0 0 0-.935.935l.055.063 1.334 1.333.062.056a.667.667 0 0 0 .818 0l.062-.056 2.667-2.666.055-.063a.667.667 0 0 0-.055-.88Z" fill="#F14624"/></g><defs><clipPath id="a"><path fill="#fff" d="M0 0h16v16H0z"/></clipPath></defs></svg>