<svg width="64" height="50" fill="none" xmlns="http://www.w3.org/2000/svg"><path opacity=".3" d="M43.114 26.618c-2.486-1.079-4.426-2.696-5.818-4.853-1.392-2.157-2.088-4.706-2.088-7.647 0-4.216 1.342-7.647 4.027-10.294C41.921 1.274 45.352 0 49.53 0c4.177 0 7.658 1.324 10.443 3.97C62.657 6.619 64 10 64 14.119c0 1.96-.249 3.921-.746 5.882-.497 1.96-1.591 4.902-3.282 8.823L51.319 50H36.55l6.564-23.382Zm-35.207 0c-2.487-1.079-4.426-2.696-5.818-4.853C.696 19.608 0 17.059 0 14.118 0 9.902 1.343 6.47 4.028 3.824 6.713 1.274 10.145 0 14.322 0c4.177 0 7.658 1.324 10.443 3.97 2.685 2.648 4.027 6.03 4.027 10.148 0 1.96-.248 3.921-.745 5.882-.498 1.96-1.592 4.902-3.282 8.823L16.112 50H1.342l6.565-23.382Z" fill="#fff"/></svg>