<svg width="16" height="16" viewBox="0 0 16 16" fill="none" xmlns="http://www.w3.org/2000/svg">
<g clip-path="url(#clip0_313_40151)">
<path d="M11.334 2.22627C12.3395 2.80684 13.1759 3.63995 13.7605 4.64314C14.3451 5.64632 14.6576 6.78478 14.6669 7.94583C14.6763 9.10687 14.3823 10.2502 13.814 11.2627C13.2457 12.2752 12.4228 13.1217 11.4268 13.7185C10.4308 14.3152 9.29623 14.6415 8.13538 14.665C6.97454 14.6885 5.82768 14.4084 4.80835 13.8524C3.78902 13.2965 2.93256 12.484 2.32376 11.4953C1.71496 10.5066 1.37492 9.37608 1.33732 8.2156L1.33398 7.9996L1.33732 7.7836C1.37465 6.63226 1.70968 5.51024 2.30974 4.52693C2.90981 3.54362 3.75442 2.73257 4.76125 2.17286C5.76807 1.61314 6.90275 1.32387 8.05465 1.33323C9.20656 1.34259 10.3364 1.65027 11.334 2.22627ZM10.472 6.19494C10.3572 6.08015 10.2045 6.0112 10.0424 6.00101C9.88042 5.99082 9.72025 6.0401 9.59198 6.1396L9.52932 6.19494L7.33398 8.3896L6.47198 7.52827L6.40932 7.47294C6.28104 7.37351 6.1209 7.32429 5.95892 7.33451C5.79694 7.34472 5.64426 7.41368 5.52949 7.52844C5.41473 7.64321 5.34577 7.79589 5.33555 7.95787C5.32533 8.11985 5.37455 8.27999 5.47398 8.40827L5.52932 8.47094L6.86265 9.80427L6.92532 9.8596C7.04223 9.95031 7.18601 9.99955 7.33398 9.99955C7.48196 9.99955 7.62574 9.95031 7.74265 9.8596L7.80532 9.80427L10.472 7.1376L10.5273 7.07494C10.6268 6.94667 10.6761 6.7865 10.6659 6.62448C10.6557 6.46246 10.5868 6.30973 10.472 6.19494Z" fill="#F14624"/>
</g>
<defs>
<clipPath id="clip0_313_40151">
<rect width="16" height="16" fill="white"/>
</clipPath>
</defs>
</svg>