<svg width="50" height="50" viewBox="0 0 50 50" fill="none" xmlns="http://www.w3.org/2000/svg">
<path d="M16.6826 14.4603C16.0689 13.8466 15.0739 13.8466 14.4603 14.4603C13.8466 15.0739 13.8466 16.0689 14.4603 16.6826L22.7777 25L14.4603 33.3174C13.8466 33.9311 13.8466 34.9261 14.4603 35.5397C15.0739 36.1534 16.0689 36.1534 16.6826 35.5397L25 27.2223L33.3174 35.5397C33.9311 36.1534 34.9261 36.1534 35.5397 35.5397C36.1534 34.9261 36.1534 33.9311 35.5397 33.3174L27.2223 25L35.5397 16.6826C36.1534 16.0689 36.1534 15.0739 35.5397 14.4603C34.9261 13.8466 33.9311 13.8466 33.3174 14.4603L25 22.7777L16.6826 14.4603Z" fill="white"/>
</svg>