<?xml version="1.0" encoding="UTF-8"?> <svg xmlns="http://www.w3.org/2000/svg" width="54" height="16" viewBox="0 0 54 16" fill="none"> <path d="M48 0H37.7C38.3 3.4 41.6 6.60001 45.2 6.60001H53.4C53.5 6.30001 53.5 5.8 53.5 5.5C53.5 2.5 51 0 48 0Z" fill="#D6D1D3"></path> <path d="M38.6 7.20001V15.5H43.6V11.1H48C50.4 11.1 52.5 9.40001 53.2 7.20001H38.6Z" fill="#8E878A"></path> <path d="M21 0V15.4H25.4C25.4 15.4 26.5 15.4 27.1 14.3C30.1 8.4 31 6.60001 31 6.60001H31.6V15.4H36.6V0H32.2C32.2 0 31.1 0.100006 30.5 1.10001C28 6.20001 26.6 8.8 26.6 8.8H26V0H21Z" fill="#8E878A"></path> <path d="M0 15.5V0.0999756H5C5 0.0999756 6.40001 0.0999725 7.20001 2.29997C9.20001 8.09997 9.40002 8.89998 9.40002 8.89998C9.40002 8.89998 9.80001 7.49997 11.6 2.29997C12.4 0.0999725 13.8 0.0999756 13.8 0.0999756H18.8V15.5H13.8V7.19998H13.2L10.4 15.5H8.20001L5.40002 7.19998H4.80002V15.5H0Z" fill="#8E878A"></path> </svg> 