<svg width="64" height="50" viewBox="0 0 64 50" fill="none" xmlns="http://www.w3.org/2000/svg">
<path opacity="0.3" d="M43.1142 26.6176C40.6278 25.5392 38.6884 23.9216 37.296 21.7647C35.9036 19.6078 35.2075 17.0588 35.2075 14.1176C35.2075 9.90196 36.5501 6.47059 39.2354 3.82353C41.9207 1.27451 45.352 -1.63026e-06 49.5291 -1.26508e-06C53.7063 -8.99905e-07 57.1873 1.32353 59.972 3.97058C62.6573 6.61765 64 10 64 14.1176C64 16.0784 63.7514 18.0392 63.2541 20C62.7568 21.9608 61.6628 24.902 59.972 28.8235L51.3193 50L36.5501 50L43.1142 26.6176ZM7.90675 26.6176C5.42035 25.5392 3.48096 23.9216 2.08857 21.7647C0.696185 19.6078 -4.74959e-06 17.0588 -4.49246e-06 14.1176C-4.12391e-06 9.90195 1.34265 6.47059 4.02797 3.82353C6.71328 1.27451 10.1445 -4.7082e-06 14.3217 -4.34302e-06C18.4988 -3.97784e-06 21.9798 1.32352 24.7646 3.97058C27.4499 6.61764 28.7925 10 28.7925 14.1176C28.7925 16.0784 28.5439 18.0392 28.0466 20C27.5493 21.9608 26.4553 24.902 24.7646 28.8235L16.1119 50L1.34265 50L7.90675 26.6176Z" fill="white"/>
</svg>
